<svg width="64" height="64" viewBox="0 0 64 64" fill="none" xmlns="http://www.w3.org/2000/svg">
<circle cx="31.8292" cy="32" r="31.2218" fill="#81CC2A"/>
<path d="M40.9338 28.0474H35.7204V22.9504C35.7204 20.7743 33.9752 19 31.8249 19C29.679 19 27.9293 20.7743 27.9293 22.9504V28.0474H22.7249C20.5746 28.0474 18.8293 29.8217 18.8293 31.9978C18.8293 34.1738 20.5746 35.9481 22.7249 35.9481H27.9293V41.0497C27.9293 43.2257 29.679 45 31.8249 45C33.9752 45 35.7204 43.2257 35.7204 41.0497V35.9481H40.9338C43.0797 35.9481 44.8293 34.1738 44.8293 31.9978C44.8293 29.8217 43.0797 28.0474 40.9338 28.0474" fill="white"/>
</svg>
