<svg width="16" height="18" viewBox="0 0 16 18" fill="none" xmlns="http://www.w3.org/2000/svg">
<path fill-rule="evenodd" clip-rule="evenodd" d="M14.5317 3.0953C14.8558 3.0953 15.1257 3.36446 15.1257 3.70696V4.02362C15.1257 4.35778 14.8558 4.63528 14.5317 4.63528H0.72061C0.395616 4.63528 0.125732 4.35778 0.125732 4.02362V3.70696C0.125732 3.36446 0.395616 3.0953 0.72061 3.0953H3.15037C3.64394 3.0953 4.07348 2.74447 4.18452 2.24947L4.31176 1.68114C4.50951 0.906984 5.16031 0.392822 5.90513 0.392822H9.34634C10.083 0.392822 10.7411 0.906984 10.9316 1.64031L11.0678 2.24864C11.178 2.74447 11.6075 3.0953 12.1019 3.0953H14.5317ZM13.2973 14.6712C13.5509 12.307 13.9951 6.69043 13.9951 6.63376C14.0113 6.4621 13.9553 6.2996 13.8443 6.16877C13.7252 6.04627 13.5744 5.97377 13.4083 5.97377H1.8495C1.68255 5.97377 1.5237 6.04627 1.41347 6.16877C1.30163 6.2996 1.24652 6.4621 1.25462 6.63376C1.25611 6.64417 1.27205 6.84201 1.29869 7.17277C1.41705 8.64214 1.74671 12.7346 1.95972 14.6712C2.11047 16.0978 3.04655 16.9945 4.40245 17.027C5.44876 17.0512 6.52667 17.0595 7.62889 17.0595C8.66709 17.0595 9.7215 17.0512 10.8002 17.027C12.2031 17.0028 13.1384 16.122 13.2973 14.6712Z" fill="white"/>
</svg>
