<svg width="33" height="33" viewBox="0 0 33 33" fill="none" xmlns="http://www.w3.org/2000/svg">
<path d="M15.0993 10.2207V4.87536C15.0993 4.30699 15.5526 3.83335 16.1259 3.83335C16.6393 3.83335 17.0742 4.23134 17.1431 4.73546L17.1526 4.87536V10.2207L23.5258 10.2211C26.6991 10.2211 29.3063 12.8197 29.4527 16.0606L29.4591 16.3481V23.0672C29.4591 26.3307 26.9427 29.0096 23.8165 29.16L23.5391 29.1667H8.71248C5.53915 29.1667 2.9446 26.5811 2.79893 23.3284L2.79248 23.0397L2.79248 16.3344C2.79248 13.0708 5.29636 10.379 8.42181 10.2278L8.69915 10.2211H15.0991V18.7576L12.9658 16.5547C12.5658 16.1416 11.9125 16.1416 11.5125 16.5547C11.3125 16.7612 11.2191 17.0366 11.2191 17.3119C11.2191 17.5212 11.2789 17.7393 11.4052 17.9239L11.5125 18.0554L15.3925 22.0759C15.5791 22.2824 15.8458 22.3925 16.1258 22.3925C16.348 22.3925 16.5703 22.316 16.7462 22.171L16.8458 22.0759L20.7258 18.0554C21.1258 17.6424 21.1258 16.9677 20.7258 16.5547C20.3622 16.1792 19.7892 16.145 19.3875 16.4523L19.2725 16.5547L17.1525 18.7576V10.2211L15.0993 10.2207Z" fill="#81CC2A"/>
</svg>
