<svg width="33" height="33" viewBox="0 0 33 33" fill="none" xmlns="http://www.w3.org/2000/svg">
<path fill-rule="evenodd" clip-rule="evenodd" d="M10.3522 3.16559H21.9122C26.4322 3.16559 29.4589 6.33892 29.4589 11.0589V21.9536C29.4589 26.6603 26.4322 29.8323 21.9122 29.8323H10.3522C5.83224 29.8323 2.79224 26.6603 2.79224 21.9536V11.0589C2.79224 6.33892 5.83224 3.16559 10.3522 3.16559ZM16.1122 12.5803C15.4856 12.5803 14.9656 12.0589 14.9656 11.4203C14.9656 10.7669 15.4856 10.2469 16.1389 10.2469C16.7789 10.2469 17.2989 10.7669 17.2989 11.4203C17.2989 12.0589 16.7789 12.5803 16.1122 12.5803ZM17.2856 21.5403C17.2856 22.1803 16.7656 22.7003 16.1122 22.7003C15.4722 22.7003 14.9522 22.1803 14.9522 21.5403V15.6469C14.9522 15.0056 15.4722 14.4736 16.1122 14.4736C16.7656 14.4736 17.2856 15.0056 17.2856 15.6469V21.5403Z" fill="white"/>
</svg>
