<svg width="33" height="33" viewBox="0 0 33 33" fill="none" xmlns="http://www.w3.org/2000/svg">
<path fill-rule="evenodd" clip-rule="evenodd" d="M27.3285 18.6068C27.8054 18.8601 28.1734 19.2601 28.4322 19.6601C28.9364 20.4868 28.8955 21.5001 28.405 22.3935L27.4512 23.9935C26.947 24.8468 26.0068 25.3801 25.0393 25.3801C24.5624 25.3801 24.031 25.2468 23.595 24.9802C23.2407 24.7535 22.8319 24.6735 22.3959 24.6735C21.0469 24.6735 19.9159 25.7801 19.8751 27.1001C19.8751 28.6335 18.6215 29.8335 17.0545 29.8335H15.2013C13.6207 29.8335 12.3671 28.6335 12.3671 27.1001C12.3398 25.7801 11.2089 24.6735 9.85988 24.6735C9.41021 24.6735 9.00143 24.7535 8.66078 24.9802C8.22474 25.2468 7.6797 25.3801 7.21641 25.3801C6.23533 25.3801 5.29513 24.8468 4.79097 23.9935L3.85077 22.3935C3.3466 21.5268 3.31935 20.4868 3.82351 19.6601C4.04153 19.2601 4.45031 18.8601 4.9136 18.6068C5.29513 18.4201 5.5404 18.1135 5.77205 17.7535C6.45335 16.6068 6.04457 15.1001 4.88635 14.4201C3.53737 13.6601 3.10133 11.9668 3.87802 10.6468L4.79097 9.07348C5.58128 7.75348 7.27092 7.28682 8.63353 8.06015C9.819 8.70015 11.3587 8.27348 12.0537 7.14015C12.2717 6.76682 12.3943 6.36682 12.3671 5.96682C12.3398 5.44682 12.4897 4.95348 12.7486 4.55348C13.2528 3.72682 14.1657 3.19348 15.1604 3.16682H17.0817C18.09 3.16682 19.003 3.72682 19.5072 4.55348C19.7524 4.95348 19.9159 5.44682 19.8751 5.96682C19.8478 6.36682 19.9704 6.76682 20.1885 7.14015C20.8834 8.27348 22.4231 8.70015 23.6222 8.06015C24.9712 7.28682 26.6745 7.75348 27.4512 9.07348L28.3641 10.6468C29.1544 11.9668 28.7184 13.6601 27.3558 14.4201C26.1976 15.1001 25.7888 16.6068 26.4837 17.7535C26.7017 18.1135 26.947 18.4201 27.3285 18.6068ZM12.2717 16.5135C12.2717 18.6068 14.0022 20.2735 16.1415 20.2735C18.2808 20.2735 19.9704 18.6068 19.9704 16.5135C19.9704 14.4201 18.2808 12.7402 16.1415 12.7402C14.0022 12.7402 12.2717 14.4201 12.2717 16.5135Z" fill="white"/>
</svg>
